<?xml version="1.0" encoding="utf-8"?><!DOCTYPE svg PUBLIC "-//W3C//DTD SVG 1.1//EN" "http://www.w3.org/Graphics/SVG/1.1/DTD/svg11.dtd"><svg version="1.1" xmlns="http://www.w3.org/2000/svg" xmlns:xlink="http://www.w3.org/1999/xlink" width="32" height="32" viewBox="0 0 32 32" data-tags="v"><g fill="#444" transform="scale(0.03125 0.03125)"><path fill="rgb(93, 135, 191)" d="M1001.557 6.784l-272.811 26.283c-17.323 1.664-36.011 16.341-41.728 32.768l-174.592 501.291-175.445-501.333c-5.717-16.384-24.448-31.061-41.728-32.725l-272.811-26.283c-17.28-1.664-26.539 10.24-20.693 26.624l343.211 954.325c5.888 16.341 24.789 29.653 42.155 29.653h267.179c3.115 0 5.717-0.853 7.637-2.347 5.291-2.645 9.856-7.211 11.733-12.459l1.664-4.608 346.88-964.565c5.888-16.384-3.371-28.288-20.651-26.624z" /></g></svg>